<?xml version="1.0" encoding="UTF-8"?>
<svg version="1.1" xmlns="http://www.w3.org/2000/svg" width="501" height="134">
<path d="M0 0 C5.626556 1.36401358 8.66946676 5.55928901 12 10 C13.1842309 11.97787337 14.09601601 13.87297885 15 16 C15.41958984 15.14728516 15.41958984 15.14728516 15.84765625 14.27734375 C18.75395089 8.67968944 21.98750957 3.92666127 27 0 C27.66 0 28.32 0 29 0 C27.89309248 6.40593286 26.66054831 12.71363856 25 19 C25.4846875 18.60167969 25.969375 18.20335938 26.46875 17.79296875 C34.11947882 11.74595039 40.21721838 9.38857615 50 10 C48.33333333 11.66666667 46.66666667 13.33333333 45 15 C44.443125 15.598125 43.88625 16.19625 43.3125 16.8125 C42 18 42 18 40 18 C39.731875 18.598125 39.46375 19.19625 39.1875 19.8125 C38.00913692 21.98316883 36.76939019 23.30817212 35 25 C35.89460938 24.94199219 36.78921875 24.88398438 37.7109375 24.82421875 C46.15597278 24.50910549 51.86378722 25.39599175 59 30 C59 30.66 59 31.32 59 32 C58.09636719 32.13277344 57.19273437 32.26554687 56.26171875 32.40234375 C55.08222656 32.57894531 53.90273438 32.75554688 52.6875 32.9375 C51.51574219 33.11152344 50.34398437 33.28554688 49.13671875 33.46484375 C45.98358597 33.92093031 45.98358597 33.92093031 43 35 C43.58007812 35.23074219 44.16015625 35.46148437 44.7578125 35.69921875 C45.53898437 36.02535156 46.32015625 36.35148437 47.125 36.6875 C47.89070313 37.00074219 48.65640625 37.31398437 49.4453125 37.63671875 C52 39 52 39 54.625 41.609375 C58.80212834 45.21725808 63.6091697 44.62946839 68.875 44.5625 C77.53692583 44.48651819 83.82103582 45.24964753 90.4375 51.1875 C92.61767714 55.11181885 93.31375538 58.51778036 93 63 C91.41815318 68.28522937 88.75044221 72.07665095 84 75 C83.01 75 82.02 75 81 75 C81 75.66 81 76.32 81 77 C81.58136719 77.22816406 82.16273438 77.45632812 82.76171875 77.69140625 C85.60857726 79.35579997 86.91577916 81.24500625 88.8125 83.9375 C89.5034375 84.91460937 90.194375 85.89171875 90.90625 86.8984375 C93.53578492 90.79368139 96.02732806 94.7625835 98.45703125 98.78515625 C99.96917097 101.24352062 99.96917097 101.24352062 103 103 C105.49057298 103.06282845 105.49057298 103.06282845 108.125 102.6875 C109.01445312 102.58824219 109.90390625 102.48898438 110.8203125 102.38671875 C112.97118765 102.21971516 112.97118765 102.21971516 114 101 C114.09326716 99.43452952 114.11745582 97.86487228 114.11352539 96.29663086 C114.11344986 95.29566879 114.11337433 94.29470673 114.11329651 93.26341248 C114.10813522 92.1748848 114.10297394 91.08635712 114.09765625 89.96484375 C114.0962413 88.85645645 114.09482635 87.74806915 114.09336853 86.60609436 C114.08775033 83.04986931 114.07519475 79.49370617 114.0625 75.9375 C114.05748734 73.53320403 114.05292403 71.12890708 114.04882812 68.72460938 C114.03777499 62.81638496 114.02101917 56.9081969 114 51 C111.36 50.01 108.72 49.02 106 48 C106 47.01 106 46.02 106 45 C120.52 45 135.04 45 150 45 C150.33 49.95 150.66 54.9 151 60 C149.68 60 148.36 60 147 60 C146.73445312 59.36191406 146.46890625 58.72382812 146.1953125 58.06640625 C145.84210938 57.24011719 145.48890625 56.41382813 145.125 55.5625 C144.77695312 54.73878906 144.42890625 53.91507813 144.0703125 53.06640625 C143.1755063 50.84253285 143.1755063 50.84253285 141 50 C138.11932263 49.76713087 135.25987481 49.5805406 132.375 49.4375 C129.61125 49.293125 126.8475 49.14875 124 49 C124 56.59 124 64.18 124 72 C127.3 71.34 130.6 70.68 134 70 C136.24311763 66.55159874 136.24311763 66.55159874 137 63 C137.99 63 138.98 63 140 63 C140 70.26 140 77.52 140 85 C139.01 85 138.02 85 137 85 C136.01 82.36 135.02 79.72 134 77 C130.7 76.67 127.4 76.34 124 76 C124.1405882 79.60444204 124.2872382 83.20845948 124.4375 86.8125 C124.47681641 87.83666016 124.51613281 88.86082031 124.55664062 89.91601562 C124.61948242 91.39038086 124.61948242 91.39038086 124.68359375 92.89453125 C124.72025146 93.80050049 124.75690918 94.70646973 124.79467773 95.63989258 C124.9208205 98.15048782 124.9208205 98.15048782 126 101 C128.92460429 102.46230215 131.55652824 102.20908727 134.8125 102.25 C136.03582031 102.27578125 137.25914062 102.3015625 138.51953125 102.328125 C142.3352867 101.96839048 144.07749458 101.45592999 147 99 C148.66468443 96.08793951 148.66468443 96.08793951 149.8125 92.8125 C150.23144531 91.72582031 150.65039062 90.63914062 151.08203125 89.51953125 C151.38496094 88.68808594 151.68789063 87.85664062 152 87 C152.99 87 153.98 87 155 87 C155.02712351 89.39591038 155.0468982 91.79150957 155.0625 94.1875 C155.07087891 94.86103516 155.07925781 95.53457031 155.08789062 96.22851562 C155.10614851 99.97138176 154.79558759 103.35240985 154 107 C145.92461341 107.3021629 137.85161105 107.53263574 129.7719574 107.67355824 C126.01927163 107.74122496 122.2704691 107.83283468 118.52001953 107.98071289 C114.89512622 108.12273415 111.27394587 108.19983094 107.64648438 108.23340416 C106.26812214 108.25729888 104.88994837 108.30397721 103.51318359 108.37449074 C99.05435018 108.59362431 95.21463827 108.53310776 91 107 C87.3636404 103.02433855 85.25565895 98.90216811 83 94 C82.23414515 92.65290472 81.45312813 91.3140689 80.64453125 89.9921875 C79.40979119 87.8912865 78.18073574 85.78703545 76.95703125 83.6796875 C73.24380178 78.59530543 70.23165044 78.03860841 64 77 C64.495 89.375 64.495 89.375 65 102 C67.64 102.66 70.28 103.32 73 104 C73 104.99 73 105.98 73 107 C64.42 107 55.84 107 47 107 C47 106.01 47 105.02 47 104 C49.31 103.01 51.62 102.02 54 101 C54.22324847 95.98320609 54.38612008 90.96932469 54.49438477 85.94873047 C54.53952418 84.24313996 54.60085724 82.53789548 54.67895508 80.83349609 C55.51152245 71.08759908 55.51152245 71.08759908 51.95654297 62.51269531 C49.67091898 60.98894599 47.59375192 59.88700272 45 59 C45.29720947 59.57524414 45.59441895 60.15048828 45.90063477 60.74316406 C48.73174846 66.22273895 50.14510538 70.33049101 50.1875 76.5625 C50.20167969 77.51253906 50.21585937 78.46257812 50.23046875 79.44140625 C50 82 50 82 48 85 C47.61328125 84.27554688 47.2265625 83.55109375 46.828125 82.8046875 C44.0828303 77.70822457 41.32931133 72.73786613 38 68 C37.81824219 68.95261719 37.63648438 69.90523438 37.44921875 70.88671875 C37.19785156 72.14097656 36.94648438 73.39523438 36.6875 74.6875 C36.44386719 75.92886719 36.20023437 77.17023438 35.94921875 78.44921875 C35.04649591 81.82607087 34.0789858 84.20485971 32 87 C31.34 87 30.68 87 30 87 C29.90203125 86.05640625 29.8040625 85.1128125 29.703125 84.140625 C28.81242277 76.49287133 27.52201744 69.6500612 24.8046875 62.390625 C24 60 24 60 24 57 C23.34 57 22.68 57 22 57 C21.525625 56.030625 21.05125 55.06125 20.5625 54.0625 C19.29806053 51.19522563 19.29806053 51.19522563 18 50 C17.97284617 51.74991334 17.95353449 53.49994945 17.9375 55.25 C17.92589844 56.22453125 17.91429687 57.1990625 17.90234375 58.203125 C17.89201753 60.85115052 17.89201753 60.85115052 18.46118164 62.75512695 C19.17472562 65.72795746 19.42822003 68.67146026 19.71875 71.71484375 C19.81295227 72.69222252 19.81295227 72.69222252 19.90905762 73.68934631 C20.04155137 75.07018612 20.17258118 76.45116708 20.30224609 77.83227539 C20.49643748 79.89957452 20.69505373 81.96640811 20.89453125 84.03320312 C21.69081438 92.34889864 22.38418724 100.66876388 23 109 C17.72 109 12.44 109 7 109 C7.14622803 107.67983887 7.29245605 106.35967773 7.44311523 104.99951172 C7.99189013 100.03854557 8.53709634 95.07719229 9.08129883 90.11572266 C9.31602281 87.98020101 9.55167739 85.84478142 9.78833008 83.70947266 C11.06879181 72.1501247 12.32786333 60.61380745 13 49 C2.76697538 58.80493204 0.99971586 73.68254049 -1 87 C-1.66 87 -2.32 87 -3 87 C-6.06085395 80.30883089 -7.68676801 74.36095182 -8 67 C-9.29662538 69.05952358 -10.58735727 71.12237057 -11.875 73.1875 C-12.23980469 73.76564453 -12.60460937 74.34378906 -12.98046875 74.93945312 C-15.0085252 78.20278033 -16.70492051 81.38059362 -18 85 C-20 83 -20 83 -21 79 C-21 86.26 -21 93.52 -21 101 C-18.69 101.99 -16.38 102.98 -14 104 C-14 104.99 -14 105.98 -14 107 C-22.58 107 -31.16 107 -40 107 C-40 106.01 -40 105.02 -40 104 C-38.2984375 103.5978125 -38.2984375 103.5978125 -36.5625 103.1875 C-34.7990625 102.5996875 -34.7990625 102.5996875 -33 102 C-30.06661157 93.1998347 -29.88299904 83.93105513 -33.56005859 75.36621094 C-35.53348907 71.43849444 -37.7574123 67.67791182 -40.0625 63.9375 C-40.43912781 63.31577911 -40.81575562 62.69405823 -41.20379639 62.05349731 C-45.34117015 55.31525631 -48.36196002 50.70676547 -56 48 C-56 47.01 -56 46.02 -56 45 C-47 45 -38 45 -29 45 C-27.75701056 43.93499731 -26.55452895 42.82238542 -25.375 41.6875 C-21.44328423 38.13023335 -18.04638403 36.53193801 -13 35 C-18.71735105 32.54970669 -22.79029227 31.66733709 -29 32 C-28 29 -28 29 -26.42578125 27.83203125 C-19.35356348 24.42011103 -12.73609755 24.60384138 -5 25 C-5.825 24.21625 -6.65 23.4325 -7.5 22.625 C-10 20 -10 20 -10 18 C-10.53625 17.773125 -11.0725 17.54625 -11.625 17.3125 C-14.80315626 15.55615049 -17.28079069 13.41020825 -20 11 C-20 10.67 -20 10.34 -20 10 C-11.39219189 9.4534725 -5.1532317 11.21661543 1.5625 16.75 C2.366875 17.4925 3.17125 18.235 4 19 C2.75297849 12.64549677 1.42635741 6.31672565 0 0 Z M-37 49 C-36.41892368 52.7602985 -35.34800504 55.53035032 -33.4375 58.8125 C-32.98246094 59.60269531 -32.52742188 60.39289062 -32.05859375 61.20703125 C-31.70925781 61.79871094 -31.35992187 62.39039063 -31 63 C-30.34 63 -29.68 63 -29 63 C-28.69707031 62.41992188 -28.39414063 61.83984375 -28.08203125 61.2421875 C-25.45192002 56.33804164 -22.71697151 52.14176825 -19 48 C-20.41805831 48.28482368 -21.83440379 48.57818144 -23.25 48.875 C-24.03890625 49.03742187 -24.8278125 49.19984375 -25.640625 49.3671875 C-27.96831144 49.99150075 -29.89031952 50.84838542 -32 52 C-31.67 50.68 -31.34 49.36 -31 48 C-34.7763932 47.7018576 -34.7763932 47.7018576 -37 49 Z M64 48 C64 56.58 64 65.16 64 74 C72.75813081 74.31833377 72.75813081 74.31833377 80 71 C82.52460927 67.2130861 83.26993243 63.31312367 82.9375 58.8125 C81.93858234 54.75023484 81.02180349 52.85392552 78 50 C73.20177589 47.12106553 70.16707097 48 64 48 Z M50 49 C51.98 51.97 51.98 51.97 54 55 C54.6814823 53.10820797 54.6814823 53.10820797 55 51 C54.34 50.34 53.68 49.68 53 49 C52.01 49 51.02 49 50 49 Z M-17 59 C-22.445 62.96 -22.445 62.96 -28 67 C-26.59624169 70.54321888 -26.59624169 70.54321888 -25 74 C-24.34 74 -23.68 74 -23 74 C-21.80266012 71.88002166 -20.61701287 69.75486324 -19.4375 67.625 C-19.09525391 67.02171875 -18.75300781 66.4184375 -18.40039062 65.796875 C-17.53872905 64.23021759 -16.76281817 62.61709138 -16 61 C-16.33 60.34 -16.66 59.68 -17 59 Z M36 65 C37 67 37 67 37 67 Z " fill="#559140" transform="translate(282,0)"/>
<path d="M0 0 C3.49971199 -0.1173794 6.99890955 -0.18763961 10.5 -0.25 C11.48226563 -0.28351562 12.46453125 -0.31703125 13.4765625 -0.3515625 C21.24351129 -0.45512182 26.60795389 0.95585606 32.4375 6.1875 C34.61767714 10.11181885 35.31375538 13.51778036 35 18 C33.41815318 23.28522937 30.75044221 27.07665095 26 30 C25.01 30 24.02 30 23 30 C23 30.66 23 31.32 23 32 C23.58136719 32.22816406 24.16273438 32.45632812 24.76171875 32.69140625 C27.60857726 34.35579997 28.91577916 36.24500625 30.8125 38.9375 C31.5034375 39.91460937 32.194375 40.89171875 32.90625 41.8984375 C35.53578492 45.79368139 38.02732806 49.7625835 40.45703125 53.78515625 C41.96917097 56.24352062 41.96917097 56.24352062 45 58 C47.49057298 58.06282845 47.49057298 58.06282845 50.125 57.6875 C51.01445312 57.58824219 51.90390625 57.48898438 52.8203125 57.38671875 C54.97118765 57.21971516 54.97118765 57.21971516 56 56 C56.09326716 54.43452952 56.11745582 52.86487228 56.11352539 51.29663086 C56.11344986 50.29566879 56.11337433 49.29470673 56.11329651 48.26341248 C56.10813522 47.1748848 56.10297394 46.08635712 56.09765625 44.96484375 C56.0962413 43.85645645 56.09482635 42.74806915 56.09336853 41.60609436 C56.08775033 38.04986931 56.07519475 34.49370617 56.0625 30.9375 C56.05748734 28.53320403 56.05292403 26.12890708 56.04882812 23.72460938 C56.03777499 17.81638496 56.02101917 11.9081969 56 6 C53.36 5.01 50.72 4.02 48 3 C48 2.01 48 1.02 48 0 C62.52 0 77.04 0 92 0 C92.495 7.425 92.495 7.425 93 15 C91.68 15 90.36 15 89 15 C88.60167969 14.04287109 88.60167969 14.04287109 88.1953125 13.06640625 C87.84210938 12.24011719 87.48890625 11.41382813 87.125 10.5625 C86.77695312 9.73878906 86.42890625 8.91507813 86.0703125 8.06640625 C85.1755063 5.84253285 85.1755063 5.84253285 83 5 C80.11932263 4.76713087 77.25987481 4.5805406 74.375 4.4375 C71.61125 4.293125 68.8475 4.14875 66 4 C66 11.59 66 19.18 66 27 C69.3 26.34 72.6 25.68 76 25 C78.24311763 21.55159874 78.24311763 21.55159874 79 18 C79.99 18 80.98 18 82 18 C82 25.26 82 32.52 82 40 C81.01 40 80.02 40 79 40 C78.01 37.36 77.02 34.72 76 32 C72.7 31.67 69.4 31.34 66 31 C66.1405882 34.60444204 66.2872382 38.20845948 66.4375 41.8125 C66.47681641 42.83666016 66.51613281 43.86082031 66.55664062 44.91601562 C66.59853516 45.89892578 66.64042969 46.88183594 66.68359375 47.89453125 C66.72025146 48.80050049 66.75690918 49.70646973 66.79467773 50.63989258 C66.9208205 53.15048782 66.9208205 53.15048782 68 56 C70.92460429 57.46230215 73.55652824 57.20908727 76.8125 57.25 C78.03582031 57.27578125 79.25914062 57.3015625 80.51953125 57.328125 C84.3352867 56.96839048 86.07749458 56.45592999 89 54 C90.66468443 51.08793951 90.66468443 51.08793951 91.8125 47.8125 C92.23144531 46.72582031 92.65039062 45.63914063 93.08203125 44.51953125 C93.38496094 43.68808594 93.68789063 42.85664062 94 42 C94.99 42 95.98 42 97 42 C97.02712351 44.39591038 97.0468982 46.79150957 97.0625 49.1875 C97.07087891 49.86103516 97.07925781 50.53457031 97.08789062 51.22851562 C97.10614851 54.97138176 96.79558759 58.35240985 96 62 C87.92461341 62.3021629 79.85161105 62.53263574 71.7719574 62.67355824 C68.01927163 62.74122496 64.2704691 62.83283468 60.52001953 62.98071289 C56.89512622 63.12273415 53.27394587 63.19983094 49.64648438 63.23340416 C48.26812214 63.25729888 46.88994837 63.30397721 45.51318359 63.37449074 C41.05435018 63.59362431 37.21463827 63.53310776 33 62 C29.3636404 58.02433855 27.25565895 53.90216811 25 49 C24.23414515 47.65290472 23.45312813 46.3140689 22.64453125 44.9921875 C21.40979119 42.8912865 20.18073574 40.78703545 18.95703125 38.6796875 C15.24380178 33.59530543 12.23165044 33.03860841 6 32 C6.33 40.25 6.66 48.5 7 57 C9.64 57.66 12.28 58.32 15 59 C15 59.99 15 60.98 15 62 C6.42 62 -2.16 62 -11 62 C-11 61.01 -11 60.02 -11 59 C-8.69 58.01 -6.38 57.02 -4 56 C-3.67 44.45 -3.34 32.9 -3 21 C-1.68 21.66 -0.36 22.32 1 23 C1.33 23 1.66 23 2 23 C1.74605469 22.38253906 1.49210937 21.76507813 1.23046875 21.12890625 C-1.064997 15.480513 -3.14793006 9.80876483 -5 4 C-4.05125 4.33 -3.1025 4.66 -2.125 5 C0.77062452 6.10159191 0.77062452 6.10159191 3 6 C1.515 3.03 1.515 3.03 0 0 Z M6 3 C6 11.58 6 20.16 6 29 C14.75813081 29.31833377 14.75813081 29.31833377 22 26 C24.52460927 22.2130861 25.26993243 18.31312367 24.9375 13.8125 C23.93858234 9.75023484 23.02180349 7.85392552 20 5 C15.20177589 2.12106553 12.16707097 3 6 3 Z " fill="#000000" transform="translate(340,45)"/>
<path d="M0 0 C0.79921875 0.00902344 1.5984375 0.01804687 2.421875 0.02734375 C3.02515625 0.03894531 3.6284375 0.05054688 4.25 0.0625 C2.58333333 1.72916667 0.91666667 3.39583333 -0.75 5.0625 C-1.306875 5.660625 -1.86375 6.25875 -2.4375 6.875 C-3.75 8.0625 -3.75 8.0625 -5.75 8.0625 C-6.018125 8.660625 -6.28625 9.25875 -6.5625 9.875 C-7.74086308 12.04566883 -8.98060981 13.37067212 -10.75 15.0625 C-9.85539062 15.00449219 -8.96078125 14.94648438 -8.0390625 14.88671875 C0.40597278 14.57160549 6.11378722 15.45849175 13.25 20.0625 C13.25 20.7225 13.25 21.3825 13.25 22.0625 C11.89455078 22.26166016 11.89455078 22.26166016 10.51171875 22.46484375 C9.33222656 22.64144531 8.15273438 22.81804688 6.9375 23 C5.76574219 23.17402344 4.59398437 23.34804688 3.38671875 23.52734375 C0.23358597 23.98343031 0.23358597 23.98343031 -2.75 25.0625 C-2.16992188 25.29324219 -1.58984375 25.52398437 -0.9921875 25.76171875 C7.18556859 29.17586444 12.3913782 32.88222178 16.25 41.0625 C15.755 42.0525 15.755 42.0525 15.25 43.0625 C14.3425 42.5675 13.435 42.0725 12.5 41.5625 C9.24126962 39.78312788 9.24126962 39.78312788 5.25 40.0625 C5.63671875 40.52398437 6.0234375 40.98546875 6.421875 41.4609375 C10.47297893 46.5348449 13.54751408 51.74569017 15.25 58.0625 C14.755 59.0525 14.755 59.0525 14.25 60.0625 C13.66992188 59.60359375 13.08984375 59.1446875 12.4921875 58.671875 C8.17880026 55.28380185 3.86806487 52.02279799 -0.75 49.0625 C-0.47285156 49.59359375 -0.19570313 50.1246875 0.08984375 50.671875 C0.63318359 51.73148438 0.63318359 51.73148438 1.1875 52.8125 C1.54714844 53.50859375 1.90679687 54.2046875 2.27734375 54.921875 C4.06623645 58.85887579 4.40816149 62.31223868 4.4375 66.625 C4.45167969 67.57503906 4.46585937 68.52507812 4.48046875 69.50390625 C4.25 72.0625 4.25 72.0625 2.25 75.0625 C1.86328125 74.33804688 1.4765625 73.61359375 1.078125 72.8671875 C-1.6671697 67.77072457 -4.42068867 62.80036613 -7.75 58.0625 C-7.93175781 59.01511719 -8.11351562 59.96773437 -8.30078125 60.94921875 C-8.55214844 62.20347656 -8.80351562 63.45773438 -9.0625 64.75 C-9.30613281 65.99136719 -9.54976563 67.23273438 -9.80078125 68.51171875 C-10.70350409 71.88857087 -11.6710142 74.26735971 -13.75 77.0625 C-14.41 77.0625 -15.07 77.0625 -15.75 77.0625 C-15.84796875 76.11890625 -15.9459375 75.1753125 -16.046875 74.203125 C-16.93757723 66.55537133 -18.22798256 59.7125612 -20.9453125 52.453125 C-21.75 50.0625 -21.75 50.0625 -21.75 47.0625 C-22.41 47.0625 -23.07 47.0625 -23.75 47.0625 C-24.224375 46.093125 -24.69875 45.12375 -25.1875 44.125 C-26.45193947 41.25772563 -26.45193947 41.25772563 -27.75 40.0625 C-27.77715383 41.81241334 -27.79646551 43.56244945 -27.8125 45.3125 C-27.82410156 46.28703125 -27.83570313 47.2615625 -27.84765625 48.265625 C-27.85798247 50.91365052 -27.85798247 50.91365052 -27.28881836 52.81762695 C-26.57527438 55.79045746 -26.32177997 58.73396026 -26.03125 61.77734375 C-25.96844849 62.4289296 -25.90564697 63.08051544 -25.84094238 63.75184631 C-25.70844863 65.13268612 -25.57741882 66.51366708 -25.44775391 67.89477539 C-25.25356252 69.96207452 -25.05494627 72.02890811 -24.85546875 74.09570312 C-24.05918562 82.41139864 -23.36581276 90.73126388 -22.75 99.0625 C-28.03 99.0625 -33.31 99.0625 -38.75 99.0625 C-38.07627519 92.80417403 -37.40073622 86.54604728 -36.72363281 80.28808594 C-36.49431267 78.16639286 -36.26545838 76.04464938 -36.03710938 73.92285156 C-35.49030062 68.84328599 -34.93703568 63.76464528 -34.36816406 58.6875 C-33.97218279 55.14816378 -33.60826549 51.60874651 -33.28027344 48.0625 C-33.13235845 46.60414667 -32.98426077 45.14581186 -32.8359375 43.6875 C-32.72040527 42.44226562 -32.60487305 41.19703125 -32.48583984 39.9140625 C-31.75 37.0625 -31.75 37.0625 -29.84326172 35.66064453 C-27.307848 34.93615612 -25.13399131 34.86818444 -22.5 34.9375 C-21.16195313 34.96457031 -21.16195313 34.96457031 -19.796875 34.9921875 C-19.12140625 35.01539063 -18.4459375 35.03859375 -17.75 35.0625 C-17.75 34.4025 -17.75 33.7425 -17.75 33.0625 C-14.12 33.0625 -10.49 33.0625 -6.75 33.0625 C-8.70216435 31.11033565 -10.28199953 30.21423355 -12.75 29.0625 C-11.76 27.4125 -10.77 25.7625 -9.75 24.0625 C-12.06 24.0625 -14.37 24.0625 -16.75 24.0625 C-16.42 22.4125 -16.09 20.7625 -15.75 19.0625 C-16.4925 19.413125 -17.235 19.76375 -18 20.125 C-20.96122875 21.1345098 -21.87062561 20.94230884 -24.75 20.0625 C-23.4187495 13.51718503 -22.16658706 9.39716782 -16.40625 5.4609375 C-10.76791295 1.96185186 -6.68421004 -0.09829721 0 0 Z M-9.75 55.0625 C-8.75 57.0625 -8.75 57.0625 -8.75 57.0625 Z " fill="#85B346" transform="translate(327.75,9.9375)"/>
<path d="M0 0 C4.23939845 1.12219371 7.01414764 3.20447717 9.7734375 6.515625 C12.38762417 11.81060181 11.9850472 18.19083561 12 24 C9.525 23.01 9.525 23.01 7 22 C7.495 22.99 7.495 22.99 8 24 C8.13415472 26.6723621 8.04318541 29.32250488 8 32 C6.68 31.34 5.36 30.68 4 30 C4 29.34 4 28.68 4 28 C0.9254644 28.7763932 0.9254644 28.7763932 -1 31 C-0.34 31 0.32 31 1 31 C1 31.99 1 32.98 1 34 C-1.64 34 -4.28 34 -7 34 C-7 34.66 -7 35.32 -7 36 C-6.2575 36.268125 -5.515 36.53625 -4.75 36.8125 C-2.13363446 37.94229421 -0.19812889 39.20893202 2 41 C-0.475 41.495 -0.475 41.495 -3 42 C-2.01257813 42.10957031 -1.02515625 42.21914063 -0.0078125 42.33203125 C1.91417969 42.56986328 1.91417969 42.56986328 3.875 42.8125 C5.15117187 42.96332031 6.42734375 43.11414062 7.7421875 43.26953125 C11 44 11 44 13 47 C12.41734375 47.08636719 11.8346875 47.17273437 11.234375 47.26171875 C-1.59288279 49.46010098 -10.94959706 54.90728871 -21 63 C-22.74824108 64.35643669 -24.49805873 65.71084578 -26.25 67.0625 C-27.50086084 68.04056672 -28.75122567 69.01927066 -30 70 C-31.15180945 67.17467916 -31.0295946 66.08088449 -29.9609375 63.16015625 C-24.6877004 52.86045915 -24.6877004 52.86045915 -20 49 C-20.60328125 49.20496094 -21.2065625 49.40992188 -21.828125 49.62109375 C-22.62734375 49.89050781 -23.4265625 50.15992188 -24.25 50.4375 C-25.03890625 50.70433594 -25.8278125 50.97117188 -26.640625 51.24609375 C-28.74821988 51.91954708 -30.84753973 52.49150595 -33 53 C-29.94455535 45.74331895 -25.96433209 40.38085315 -18.703125 36.8984375 C-16.82984036 36.18765219 -14.91720547 35.5820088 -13 35 C-18.71735105 32.54970669 -22.79029227 31.66733709 -29 32 C-28 29 -28 29 -26.42578125 27.83203125 C-19.35356348 24.42011103 -12.73609755 24.60384138 -5 25 C-5.825 24.21625 -6.65 23.4325 -7.5 22.625 C-10 20 -10 20 -10 18 C-10.804375 17.6596875 -10.804375 17.6596875 -11.625 17.3125 C-14.80315626 15.55615049 -17.28079069 13.41020825 -20 11 C-20 10.67 -20 10.34 -20 10 C-11.39219189 9.4534725 -5.1532317 11.21661543 1.5625 16.75 C2.366875 17.4925 3.17125 18.235 4 19 C2.75297849 12.64549677 1.42635741 6.31672565 0 0 Z " fill="#88B346" transform="translate(282,0)"/>
<path d="M0 0 C14.52 0 29.04 0 44 0 C44.495 7.425 44.495 7.425 45 15 C43.68 15 42.36 15 41 15 C40.60167969 14.04287109 40.60167969 14.04287109 40.1953125 13.06640625 C39.84210938 12.24011719 39.48890625 11.41382813 39.125 10.5625 C38.77695312 9.73878906 38.42890625 8.91507813 38.0703125 8.06640625 C37.1755063 5.84253285 37.1755063 5.84253285 35 5 C32.11932263 4.76713087 29.25987481 4.5805406 26.375 4.4375 C23.61125 4.293125 20.8475 4.14875 18 4 C18 11.59 18 19.18 18 27 C21.3 26.34 24.6 25.68 28 25 C30.24311763 21.55159874 30.24311763 21.55159874 31 18 C31.99 18 32.98 18 34 18 C34 25.26 34 32.52 34 40 C33.01 40 32.02 40 31 40 C30.01 37.36 29.02 34.72 28 32 C24.7 31.67 21.4 31.34 18 31 C18.1405882 34.60444204 18.2872382 38.20845948 18.4375 41.8125 C18.47681641 42.83666016 18.51613281 43.86082031 18.55664062 44.91601562 C18.59853516 45.89892578 18.64042969 46.88183594 18.68359375 47.89453125 C18.72025146 48.80050049 18.75690918 49.70646973 18.79467773 50.63989258 C18.9208205 53.15048782 18.9208205 53.15048782 20 56 C22.92460429 57.46230215 25.55652824 57.20908727 28.8125 57.25 C30.03582031 57.27578125 31.25914062 57.3015625 32.51953125 57.328125 C36.3352867 56.96839048 38.07749458 56.45592999 41 54 C42.66468443 51.08793951 42.66468443 51.08793951 43.8125 47.8125 C44.23144531 46.72582031 44.65039062 45.63914063 45.08203125 44.51953125 C45.38496094 43.68808594 45.68789063 42.85664062 46 42 C46.99 42 47.98 42 49 42 C49.02712351 44.39591038 49.0468982 46.79150957 49.0625 49.1875 C49.07087891 49.86103516 49.07925781 50.53457031 49.08789062 51.22851562 C49.10654779 55.05323378 48.75942257 58.20288716 48 62 C32.16 62 16.32 62 0 62 C0 61.01 0 60.02 0 59 C2.64 58.01 5.28 57.02 8 56 C8 39.5 8 23 8 6 C5.36 5.01 2.72 4.02 0 3 C0 2.01 0 1.02 0 0 Z " fill="#9C8679" transform="translate(443,45)"/>
<path d="M0 0 C1.32 0 2.64 0 4 0 C5.58917104 3.70585594 7.17040879 7.41505133 8.75 11.125 C9.24008545 12.27178223 9.7301709 13.41856445 10.23510742 14.60009766 C13.00009114 21.11577719 15.66490594 27.65369099 18.19140625 34.265625 C18.71822533 35.63142449 19.24524186 36.99714783 19.77246094 38.36279297 C20.54192308 40.35717849 21.3043299 42.35289855 22.04553223 44.35797119 C22.73853624 46.23203099 23.45672836 48.09671711 24.17578125 49.9609375 C24.57708252 51.03134277 24.97838379 52.10174805 25.3918457 53.20458984 C27.36298765 56.6309714 29.71456685 57.89380014 33 60 C33 60.99 33 61.98 33 63 C25.08 63 17.16 63 9 63 C9 62.01 9 61.02 9 60 C10.98 59.34 12.96 58.68 15 58 C14.38100042 54.03840266 13.12267721 50.56007698 11.62109375 46.8671875 C11 45 11 45 11 42 C3.41 42 -4.18 42 -12 42 C-12.33 43.98 -12.66 45.96 -13 48 C-13.48400981 49.59497533 -14.00223847 51.1801851 -14.5625 52.75 C-15.67868954 55.80635394 -15.67868954 55.80635394 -16 59 C-12.535 59.495 -12.535 59.495 -9 60 C-9 60.99 -9 61.98 -9 63 C-15.93 63 -22.86 63 -30 63 C-30 62.01 -30 61.02 -30 60 C-28.94167969 59.72671875 -27.88335937 59.4534375 -26.79296875 59.171875 C-23.21173745 57.613801 -22.09889511 55.87088534 -20.55078125 52.328125 C-19.77920845 50.31164883 -19.03487174 48.2846203 -18.3125 46.25 C-17.90459229 45.16847656 -17.49668457 44.08695313 -17.07641602 42.97265625 C-16.18534564 40.60848976 -15.30454668 38.24043322 -14.43261719 35.86914062 C-12.11702067 29.58193054 -9.67354439 23.34335662 -7.24911499 17.09753418 C-6.4433645 15.0151562 -5.64425371 12.93034156 -4.84692383 10.84472656 C-4.59772186 10.1955426 -4.3485199 9.54635864 -4.09176636 8.87750244 C-3.4119223 7.1063669 -2.73409479 5.33445769 -2.05639648 3.5625 C-1 1 -1 1 0 0 Z M-1 13 C-2.5026392 16.97817511 -4.00166952 20.95770027 -5.5 24.9375 C-6.14388672 26.64196289 -6.14388672 26.64196289 -6.80078125 28.38085938 C-7.20683594 29.46044922 -7.61289063 30.54003906 -8.03125 31.65234375 C-8.40830078 32.65257568 -8.78535156 33.65280762 -9.17382812 34.68334961 C-10.05598375 36.74705634 -10.05598375 36.74705634 -10 38 C-4.06 38 1.88 38 8 38 C7.32099038 33.92594228 6.77170341 30.97579451 5.37109375 27.2578125 C5.05849609 26.41992188 4.74589844 25.58203125 4.42382812 24.71875 C4.09833984 23.8628125 3.77285156 23.006875 3.4375 22.125 C3.10814453 21.24585938 2.77878906 20.36671875 2.43945312 19.4609375 C1.63113386 17.30541947 0.81787706 15.15190559 0 13 C-0.33 13 -0.66 13 -1 13 Z " fill="#000000" transform="translate(199,44)"/>
<path d="M0 0 C1.32 0 2.64 0 4 0 C5.58917104 3.70585594 7.17040879 7.41505133 8.75 11.125 C9.24008545 12.27178223 9.7301709 13.41856445 10.23510742 14.60009766 C13.00009114 21.11577719 15.66490594 27.65369099 18.19140625 34.265625 C18.71822533 35.63142449 19.24524186 36.99714783 19.77246094 38.36279297 C20.54192308 40.35717849 21.3043299 42.35289855 22.04553223 44.35797119 C22.73853624 46.23203099 23.45672836 48.09671711 24.17578125 49.9609375 C24.57708252 51.03134277 24.97838379 52.10174805 25.3918457 53.20458984 C27.36298765 56.6309714 29.71456685 57.89380014 33 60 C33 60.99 33 61.98 33 63 C25.08 63 17.16 63 9 63 C9 62.01 9 61.02 9 60 C10.98 59.34 12.96 58.68 15 58 C14.38100042 54.03840266 13.12267721 50.56007698 11.62109375 46.8671875 C11 45 11 45 11 42 C3.41 42 -4.18 42 -12 42 C-12.33 43.98 -12.66 45.96 -13 48 C-13.48400981 49.59497533 -14.00223847 51.1801851 -14.5625 52.75 C-15.67868954 55.80635394 -15.67868954 55.80635394 -16 59 C-12.535 59.495 -12.535 59.495 -9 60 C-9 60.99 -9 61.98 -9 63 C-15.93 63 -22.86 63 -30 63 C-30 62.01 -30 61.02 -30 60 C-28.94167969 59.72671875 -27.88335937 59.4534375 -26.79296875 59.171875 C-23.21173745 57.613801 -22.09889511 55.87088534 -20.55078125 52.328125 C-19.77920845 50.31164883 -19.03487174 48.2846203 -18.3125 46.25 C-17.90459229 45.16847656 -17.49668457 44.08695313 -17.07641602 42.97265625 C-16.18534564 40.60848976 -15.30454668 38.24043322 -14.43261719 35.86914062 C-12.11702067 29.58193054 -9.67354439 23.34335662 -7.24911499 17.09753418 C-6.4433645 15.0151562 -5.64425371 12.93034156 -4.84692383 10.84472656 C-4.59772186 10.1955426 -4.3485199 9.54635864 -4.09176636 8.87750244 C-3.4119223 7.1063669 -2.73409479 5.33445769 -2.05639648 3.5625 C-1 1 -1 1 0 0 Z M-1 13 C-2.5026392 16.97817511 -4.00166952 20.95770027 -5.5 24.9375 C-6.14388672 26.64196289 -6.14388672 26.64196289 -6.80078125 28.38085938 C-7.20683594 29.46044922 -7.61289063 30.54003906 -8.03125 31.65234375 C-8.40830078 32.65257568 -8.78535156 33.65280762 -9.17382812 34.68334961 C-10.05598375 36.74705634 -10.05598375 36.74705634 -10 38 C-4.06 38 1.88 38 8 38 C7.32099038 33.92594228 6.77170341 30.97579451 5.37109375 27.2578125 C5.05849609 26.41992188 4.74589844 25.58203125 4.42382812 24.71875 C4.09833984 23.8628125 3.77285156 23.006875 3.4375 22.125 C3.10814453 21.24585938 2.77878906 20.36671875 2.43945312 19.4609375 C1.63113386 17.30541947 0.81787706 15.15190559 0 13 C-0.33 13 -0.66 13 -1 13 Z " fill="#000000" transform="translate(82,44)"/>
<path d="M0 0 C0.66 -0.99 1.32 -1.98 2 -3 C2.99 -3 3.98 -3 5 -3 C6.20029908 -0.59940183 6.11459743 0.89360649 6.09765625 3.5703125 C6.09443359 4.46621094 6.09121094 5.36210938 6.08789062 6.28515625 C6.07532227 7.69087891 6.07532227 7.69087891 6.0625 9.125 C6.05798828 10.06988281 6.05347656 11.01476563 6.04882812 11.98828125 C6.03702357 14.32558387 6.02055759 16.66276061 6 19 C4.06811523 18.6159668 4.06811523 18.6159668 2 18 C0.91015625 16.14453125 0.91015625 16.14453125 0.0625 13.8125 C-2.04739964 8.63665246 -4.31838619 4.68558582 -9.1875 1.625 C-14.75411579 0.38797427 -19.9733459 0.286918 -25.375 2.1875 C-30.7591794 5.90514768 -33.44223358 10.70824213 -35 17 C-36.70259554 27.91335827 -36.32312668 38.58072163 -30 48 C-25.7858498 52.10609507 -22.07797043 53.79220296 -16.25 54.375 C-10.41114351 54.17669921 -5.18578475 52.31382235 -1.1328125 48.0234375 C0.82503214 45.44732613 2.55268695 42.89462609 4 40 C5.65 40.66 7.3 41.32 9 42 C5.75461085 49.70779923 1.16399314 55.33516987 -6.5625 58.9375 C-14.44285289 61.40885327 -23.95358753 61.41550167 -31.5 58 C-39.0259796 53.52441744 -43.67450777 47.44017273 -46.33984375 39.12109375 C-48.69640236 27.97973086 -47.48296219 17.45481353 -41.609375 7.6875 C-31.94993584 -6.14074975 -14.32381297 -7.54949201 0 0 Z " fill="#000000" transform="translate(161,48)"/>
<path d="M0 0 C7.92 0 15.84 0 24 0 C24 0.99 24 1.98 24 3 C22.02 3.33 20.04 3.66 18 4 C20.88746114 14.00391249 24.44087963 23.63230676 28.25 33.3125 C28.81032137 34.7465786 29.37021958 36.18082261 29.9296875 37.61523438 C31.28160445 41.07873606 32.6391673 44.53999006 34 48 C35.98581783 42.91754749 37.96292665 37.83180879 39.93408203 32.74365234 C41.03236896 29.91668293 42.13931344 27.09318478 43.24609375 24.26953125 C43.97692323 22.38816092 44.70739944 20.50665332 45.4375 18.625 C45.79134766 17.72821533 46.14519531 16.83143066 46.50976562 15.9074707 C46.83525391 15.064021 47.16074219 14.22057129 47.49609375 13.3515625 C47.78669678 12.60729004 48.0772998 11.86301758 48.37670898 11.09619141 C49.1900079 8.72546652 49.1900079 8.72546652 49 5 C47.02 4.34 45.04 3.68 43 3 C43 2.01 43 1.02 43 0 C49.6 0 56.2 0 63 0 C63 0.99 63 1.98 63 3 C61.3603125 3.2165625 61.3603125 3.2165625 59.6875 3.4375 C57.70281292 3.92648902 57.70281292 3.92648902 56 5 C55.05724091 6.73897749 55.05724091 6.73897749 54.54760742 8.87280273 C53.468711 12.48830073 52.27996497 16.00102255 50.9152832 19.51977539 C50.53511551 20.50011246 50.15494781 21.48044952 49.76325989 22.49049377 C49.36314194 23.51585739 48.96302399 24.54122101 48.55078125 25.59765625 C48.13330124 26.67252792 47.71582123 27.7473996 47.28569031 28.85484314 C45.96330594 32.25818187 44.63795167 35.66035484 43.3125 39.0625 C42.41061018 41.38208483 41.50891548 43.70174553 40.60742188 46.02148438 C38.40720398 51.68186914 36.2045523 57.34130205 34 63 C32.35 63 30.7 63 29 63 C28.63748138 62.08704163 28.63748138 62.08704163 28.26763916 61.15563965 C25.74092741 54.79445266 23.20927478 48.43524815 20.67480469 42.07714844 C19.73083912 39.70720611 18.78811469 37.33676902 17.84667969 34.96582031 C16.48962857 31.54880576 15.12805518 28.13362279 13.765625 24.71875 C13.34879456 23.66635132 12.93196411 22.61395264 12.50250244 21.52966309 C9.08550895 11.1351338 9.08550895 11.1351338 2.25 3.5 C1.13625 3.2525 1.13625 3.2525 0 3 C0 2.01 0 1.02 0 0 Z " fill="#0B9444" transform="translate(0,45)"/>
<path d="M0 0 C0.79921875 0.00902344 1.5984375 0.01804687 2.421875 0.02734375 C3.02515625 0.03894531 3.6284375 0.05054688 4.25 0.0625 C2.58333333 1.72916667 0.91666667 3.39583333 -0.75 5.0625 C-1.306875 5.660625 -1.86375 6.25875 -2.4375 6.875 C-3.75 8.0625 -3.75 8.0625 -5.75 8.0625 C-6.018125 8.660625 -6.28625 9.25875 -6.5625 9.875 C-7.74086308 12.04566883 -8.98060981 13.37067212 -10.75 15.0625 C-9.85539062 15.00449219 -8.96078125 14.94648438 -8.0390625 14.88671875 C0.40597278 14.57160549 6.11378722 15.45849175 13.25 20.0625 C13.25 20.7225 13.25 21.3825 13.25 22.0625 C11.89455078 22.26166016 11.89455078 22.26166016 10.51171875 22.46484375 C9.33222656 22.64144531 8.15273438 22.81804688 6.9375 23 C5.76574219 23.17402344 4.59398437 23.34804688 3.38671875 23.52734375 C0.23358597 23.98343031 0.23358597 23.98343031 -2.75 25.0625 C-2.16992188 25.29324219 -1.58984375 25.52398437 -0.9921875 25.76171875 C7.18556859 29.17586444 12.3913782 32.88222178 16.25 41.0625 C15.755 42.0525 15.755 42.0525 15.25 43.0625 C14.3425 42.5675 13.435 42.0725 12.5 41.5625 C9.24126962 39.78312788 9.24126962 39.78312788 5.25 40.0625 C5.63671875 40.52398437 6.0234375 40.98546875 6.421875 41.4609375 C10.47297893 46.5348449 13.54751408 51.74569017 15.25 58.0625 C14.755 59.0525 14.755 59.0525 14.25 60.0625 C12.95755377 59.06350775 11.66610839 58.06322069 10.375 57.0625 C9.55386719 56.42699219 8.73273438 55.79148438 7.88671875 55.13671875 C6.14301419 53.7650045 4.41590287 52.37190345 2.70703125 50.95703125 C-2.24376297 46.86590982 -6.87496391 43.67362715 -12.75 41.0625 C-12.75 40.4025 -12.75 39.7425 -12.75 39.0625 C-13.74 38.7325 -14.73 38.4025 -15.75 38.0625 C-15.75 37.4025 -15.75 36.7425 -15.75 36.0625 C-18.72 36.0625 -21.69 36.0625 -24.75 36.0625 C-24.75 35.7325 -24.75 35.4025 -24.75 35.0625 C-22.44 35.0625 -20.13 35.0625 -17.75 35.0625 C-17.75 34.4025 -17.75 33.7425 -17.75 33.0625 C-14.12 33.0625 -10.49 33.0625 -6.75 33.0625 C-8.70216435 31.11033565 -10.28199953 30.21423355 -12.75 29.0625 C-11.76 27.4125 -10.77 25.7625 -9.75 24.0625 C-12.06 24.0625 -14.37 24.0625 -16.75 24.0625 C-16.42 22.4125 -16.09 20.7625 -15.75 19.0625 C-16.4925 19.413125 -17.235 19.76375 -18 20.125 C-20.96122875 21.1345098 -21.87062561 20.94230884 -24.75 20.0625 C-23.4187495 13.51718503 -22.16658706 9.39716782 -16.40625 5.4609375 C-10.76791295 1.96185186 -6.68421004 -0.09829721 0 0 Z " fill="#8AB747" transform="translate(327.75,9.9375)"/>
<path d="M0 0 C8.25 0 16.5 0 25 0 C25 0.99 25 1.98 25 3 C23.02 3.33 21.04 3.66 19 4 C19.5053125 4.94101562 20.010625 5.88203125 20.53125 6.8515625 C21.18814133 8.10904019 21.84435567 9.36687169 22.5 10.625 C22.83386719 11.24246094 23.16773438 11.85992187 23.51171875 12.49609375 C25.58469428 16.51512794 26.38860447 19.48941245 26 24 C26.99 24 27.98 24 29 24 C29.66 25.65 30.32 27.3 31 29 C31.66 29 32.32 29 33 29 C33.268125 28.071875 33.53625 27.14375 33.8125 26.1875 C34.94480421 23.14815711 35.69900511 22.09926383 38 20 C37.69147815 21.958964 37.3780582 23.91715713 37.0625 25.875 C36.88847656 26.96554688 36.71445312 28.05609375 36.53515625 29.1796875 C36 32 36 32 35 34 C34.91573906 35.6674606 34.89274857 37.33825187 34.90234375 39.0078125 C34.90556641 39.99394531 34.90878906 40.98007813 34.91210938 41.99609375 C34.92048828 43.02863281 34.92886719 44.06117187 34.9375 45.125 C34.94201172 46.16527344 34.94652344 47.20554688 34.95117188 48.27734375 C34.96298048 50.85161962 34.97944925 53.42578146 35 56 C37.31 56.99 39.62 57.98 42 59 C42 59.99 42 60.98 42 62 C33.42 62 24.84 62 16 62 C16 61.01 16 60.02 16 59 C17.134375 58.731875 18.26875 58.46375 19.4375 58.1875 C21.2009375 57.5996875 21.2009375 57.5996875 23 57 C25.93338843 48.1998347 26.11700096 38.93105513 22.43994141 30.36621094 C20.46651093 26.43849444 18.2425877 22.67791182 15.9375 18.9375 C15.56087219 18.31577911 15.18424438 17.69405823 14.79620361 17.05349731 C10.65882985 10.31525631 7.63803998 5.70676547 0 3 C0 2.01 0 1.02 0 0 Z " fill="#000000" transform="translate(226,45)"/>
<path d="M0 0 C0.66 0 1.32 0 2 0 C3.67354268 9.10889948 4.71143387 18.21967803 5.5625 27.4375 C5.68909207 28.76631049 5.81604407 30.09508674 5.94335938 31.42382812 C6.71703635 39.61022165 7.39149873 47.79972099 8 56 C2.72 56 -2.56 56 -8 56 C-7.33248409 49.57620834 -6.65678879 43.15334842 -5.97363281 36.73120117 C-5.74256234 34.54816776 -5.51369473 32.36489998 -5.28710938 30.18139648 C-4.96027824 27.03564682 -4.62542926 23.89083634 -4.2890625 20.74609375 C-4.19001617 19.7760289 -4.09096985 18.80596405 -3.98892212 17.8065033 C-3.30658328 11.52310788 -1.99828375 5.99485125 0 0 Z " fill="#DFAE72" transform="translate(297,53)"/>
<path d="M0 0 C8.84320758 0.44965462 19.22963152 2.43851957 25.5625 9.125 C30.97993002 16.68648842 33.33915367 25.78163987 32 35 C31.34 35.99 30.68 36.98 30 38 C29.47212891 37.00033203 29.47212891 37.00033203 28.93359375 35.98046875 C25.72930797 29.99857753 22.29705546 24.26302374 18.59375 18.578125 C17.17412576 16.28167403 15.99998994 14.01207486 14.875 11.5625 C12.38308549 6.43208778 8.91606778 4.2510568 3.6875 2.25 C2.470625 1.8375 1.25375 1.425 0 1 C0 0.67 0 0.34 0 0 Z " fill="#4B853D" transform="translate(300,47)"/>
<path d="M0 0 C-0.80308756 2.77430247 -1.64032631 5.38613995 -3.10546875 7.88671875 C-8.29806476 16.78602945 -9.36821786 26.97125242 -11 37 C-11.66 37 -12.32 37 -13 37 C-16.97424683 28.98053765 -18.80475215 21.17851374 -16.234375 12.37890625 C-14.5248787 8.24762353 -12.66351126 4.69375828 -9 2 C-5.77944711 0.68548862 -3.48063358 0 0 0 Z " fill="#86B447" transform="translate(292,50)"/>
<path d="M0 0 C3.3 0 6.6 0 10 0 C12.37322023 6.34788175 12.58759628 12.26407261 13 19 C7.72 19 2.44 19 -3 19 C-2.690625 16.421875 -2.38125 13.84375 -2.0625 11.1875 C-1.96718994 10.37949951 -1.87187988 9.57149902 -1.77368164 8.73901367 C-1.39999197 5.69021083 -0.97382819 2.92148456 0 0 Z " fill="#AE804A" transform="translate(292,90)"/>
<path d="M0 0 C0.66 0.33 1.32 0.66 2 1 C1.34 3.64 0.68 6.28 0 9 C2.64 8.67 5.28 8.34 8 8 C7.67 9.65 7.34 11.3 7 13 C7.78375 12.814375 8.5675 12.62875 9.375 12.4375 C12 12 12 12 14 13 C13.34 14.65 12.68 16.3 12 18 C12.804375 18.45375 13.60875 18.9075 14.4375 19.375 C17 21 17 21 18 23 C14.04 22.67 10.08 22.34 6 22 C6 22.66 6 23.32 6 24 C3.03 24 0.06 24 -3 24 C-1.35 22.35 0.3 20.7 2 19 C1.01 18.67 0.02 18.34 -1 18 C-1 17.01 -1 16.02 -1 15 C-2.32 15 -3.64 15 -5 15 C-5.901316 10.40328841 -6.53629129 7.10637637 -4 3 C-1.875 2.1875 -1.875 2.1875 0 2 C0 1.34 0 0.68 0 0 Z " fill="#639540" transform="translate(304,21)"/>
<path d="M0 0 C0.99 0.33 1.98 0.66 3 1 C3.33 1.99 3.66 2.98 4 4 C4.886875 4.556875 5.77375 5.11375 6.6875 5.6875 C13.72580919 10.16028642 17.87250153 18.10624706 20 26 C19.67 26.66 19.34 27.32 19 28 C16.88043709 26.3616905 14.76528772 24.71826332 12.65625 23.06640625 C10.87740896 21.68257256 9.08547259 20.31541842 7.28125 18.96484375 C-1.15902367 12.52292899 -1.15902367 12.52292899 -3 7 C-3 6.34 -3 5.68 -3 5 C-2.01 5 -1.02 5 0 5 C0 3.68 0 2.36 0 1 C0 0.67 0 0.34 0 0 Z " fill="#A8CD4E" transform="translate(323,42)"/>
<path d="M0 0 C-2.5399225 7.83290786 -6.35602199 11.39139938 -13 16 C-14.69477996 17.3030861 -16.38258985 18.61529942 -18.0625 19.9375 C-18.81660156 20.52402344 -19.57070312 21.11054687 -20.34765625 21.71484375 C-20.89292969 22.13894531 -21.43820313 22.56304687 -22 23 C-23.13161914 20.20108402 -23.0324604 19.09068704 -21.99609375 16.1953125 C-18.45495563 9.21953666 -15.45626293 3.56235118 -8.5 -0.4375 C-5.40418763 -1.13405778 -3.06752705 -0.71337838 0 0 Z " fill="#A6CB4E" transform="translate(274,47)"/>
<path d="M0 0 C8.4046304 -0.53362733 14.02016909 1.34677939 21 6 C21.77019559 8.69018316 21.82103589 11.18131524 22 14 C21 15 21 15 18.25 15.375 C13.97701074 14.88196278 12.65559342 13.28043894 10 10 C10 9.34 10 8.68 10 8 C9.46375 7.773125 8.9275 7.54625 8.375 7.3125 C5.19684374 5.55615049 2.71920931 3.41020825 0 1 C0 0.67 0 0.34 0 0 Z " fill="#ABCF4E" transform="translate(262,10)"/>
<path d="M0 0 C-1.66666667 1.66666667 -3.33333333 3.33333333 -5 5 C-5.556875 5.598125 -6.11375 6.19625 -6.6875 6.8125 C-8 8 -8 8 -10 8 C-10.2475 8.61875 -10.495 9.2375 -10.75 9.875 C-12.27221172 12.46275992 -13.16777975 13.05592658 -16 14 C-19.25 14.125 -19.25 14.125 -22 14 C-22.45075211 10.12353183 -22.36790082 8.49436672 -20 5.3125 C-13.68004377 0.44086708 -7.85619095 -0.49101193 0 0 Z " fill="#A9CF4D" transform="translate(332,10)"/>
<path d="M0 0 C0.66 0 1.32 0 2 0 C0.83760783 7.19315625 -0.74503612 14.06974434 -3 21 C-3.66 21 -4.32 21 -5 21 C-5 21.66 -5 22.32 -5 23 C-6.65 23.33 -8.3 23.66 -10 24 C-10.13398724 10.37158322 -10.13398724 10.37158322 -5.5625 5.25 C-4.40312819 4.1366158 -3.21924339 3.04747931 -2 2 C-1.34 1.34 -0.68 0.68 0 0 Z " fill="#84B346" transform="translate(309,0)"/>
<path d="M0 0 C0.33 1.32 0.66 2.64 1 4 C2.32 4 3.64 4 5 4 C5 4.99 5 5.98 5 7 C6.32 7.33 7.64 7.66 9 8 C6.50023911 10.60127403 4.00287731 12.9872018 1 15 C-4.11990589 14.59040753 -7.31530798 11.33376897 -11 8 C-10.01 7.67 -9.02 7.34 -8 7 C-8 6.01 -8 5.02 -8 4 C-6.68 4.33 -5.36 4.66 -4 5 C-4 3.68 -4 2.36 -4 1 C-2.68 0.67 -1.36 0.34 0 0 Z " fill="#52803A" transform="translate(298,32)"/>
<path d="M0 0 C4.72131148 2.42118537 4.72131148 2.42118537 5.8125 4.6875 C5.874375 5.450625 5.93625 6.21375 6 7 C6.103125 8.175625 6.20625 9.35125 6.3125 10.5625 C6.25128186 15.97010194 4.50361819 21.23558946 2 26 C1.01 26.33 0.02 26.66 -1 27 C-1.05398987 24.72942623 -1.09278742 22.45848712 -1.125 20.1875 C-1.14820313 18.92292969 -1.17140625 17.65835938 -1.1953125 16.35546875 C-1 13 -1 13 1 10 C1.0255089 7.4745777 1.0255089 7.4745777 0.625 4.8125 C0.51414062 3.91144531 0.40328125 3.01039062 0.2890625 2.08203125 C0.19367188 1.39496094 0.09828125 0.70789062 0 0 Z " fill="#A2CA4B" transform="translate(313,60)"/>
<path d="M0 0 C0.33 0.66 0.66 1.32 1 2 C0.328125 3.671875 0.328125 3.671875 -0.75 5.75 C-3.64228942 11.88607235 -4.75499069 18.36938223 -6 25 C-8 23 -8 23 -8.265625 20.20703125 C-8.20766874 7.61603465 -8.20766874 7.61603465 -6 3 C-2.875 1.0625 -2.875 1.0625 0 0 Z " fill="#649648" transform="translate(270,60)"/>
<path d="M0 0 C2.38564077 0.57584432 4.66682784 1.22227595 7 2 C10.37680607 7.97541815 10.84464871 15.30862712 10 22 C9.34 22.99 8.68 23.98 8 25 C6.6785007 22.3570014 6.59629481 19.93657996 6.25 17 C5.32021604 10.57018631 3.29005028 5.56294761 0 0 Z " fill="#83B246" transform="translate(322,60)"/>
<path d="M0 0 C-0.33 2.31 -0.66 4.62 -1 7 C-2.48113281 7.41572266 -2.48113281 7.41572266 -3.9921875 7.83984375 C-5.28648797 8.20562432 -6.58075719 8.57151549 -7.875 8.9375 C-8.52597656 9.11990234 -9.17695313 9.30230469 -9.84765625 9.49023438 C-13.50796485 10.51892693 -13.50796485 10.51892693 -17 12 C-16.67539864 8.99909355 -16.12817102 8.10918272 -13.78515625 6.11328125 C-12.88667969 5.51902344 -11.98820312 4.92476562 -11.0625 4.3125 C-10.16660156 3.71050781 -9.27070313 3.10851563 -8.34765625 2.48828125 C-4.95056838 0.33471972 -4.2373919 0 0 0 Z " fill="#83AE48" transform="translate(269,40)"/>
<path d="M0 0 C6.01511982 0.37594499 10.37119946 2.06251383 15 6 C16.81860531 8.31052314 17.81165362 10.2616366 19 13 C18.67 13.66 18.34 14.32 18 15 C16.7260098 14.23439544 15.45593488 13.46227374 14.1875 12.6875 C13.47980469 12.25824219 12.77210938 11.82898437 12.04296875 11.38671875 C8.79923373 9.18494833 7.25557574 7.76672721 6 4 C2.99152582 2.77479736 2.99152582 2.77479736 0 2 C0 1.34 0 0.68 0 0 Z " fill="#A0C54E" transform="translate(325,38)"/>
<path d="M0 0 C0.33 0.99 0.66 1.98 1 3 C-1.84823466 5.35061205 -4.25993001 6.58344528 -7.8125 7.5625 C-8.68261719 7.80742188 -9.55273438 8.05234375 -10.44921875 8.3046875 C-11.29097656 8.53414062 -12.13273437 8.76359375 -13 9 C-14.37542086 9.39436846 -15.7504859 9.78998268 -17.125 10.1875 C-18.548125 10.5896875 -18.548125 10.5896875 -20 11 C-20 11.66 -20 12.32 -20 13 C-22.97 12.505 -22.97 12.505 -26 12 C-23.29801218 8.63259727 -19.65466824 7.39560466 -15.75 5.875 C-15.10675781 5.61074219 -14.46351563 5.34648438 -13.80078125 5.07421875 C-10.46984288 3.75390716 -7.66791531 2.95303185 -4.078125 2.4453125 C-3.06234375 2.29835937 -2.0465625 2.15140625 -1 2 C-0.67 1.34 -0.34 0.68 0 0 Z " fill="#558B3F" transform="translate(296,44)"/>
<path d="M0 0 C2.875 0.9375 2.875 0.9375 6 3 C7.12755372 5.94416805 7.62039672 8.87809026 8 12 C7.34 12 6.68 12 6 12 C6.20625 12.78375 6.4125 13.5675 6.625 14.375 C6.74875 15.24125 6.8725 16.1075 7 17 C6.34 17.66 5.68 18.32 5 19 C4.67 18.01 4.34 17.02 4 16 C3.01 15.67 2.02 15.34 1 15 C1 14.01 1 13.02 1 12 C0.01 11.67 -0.98 11.34 -2 11 C-1.01 10.67 -0.02 10.34 1 10 C1.11320856 4.91696314 1.11320856 4.91696314 0 0 Z " fill="#5D8D3E" transform="translate(288,21)"/>
<path d="M0 0 C1.125 3.75 1.125 3.75 0 6 C-0.66 5.67 -1.32 5.34 -2 5 C-1.67 4.01 -1.34 3.02 -1 2 C-6.8274586 3.90899506 -10.42209508 5.96708376 -15 10 C-15.66 10 -16.32 10 -17 10 C-17.66 11.65 -18.32 13.3 -19 15 C-19.66 14.67 -20.32 14.34 -21 14 C-15.88307136 4.70935536 -11.25921824 -1.37867978 0 0 Z " fill="#A6CC4C" transform="translate(270,38)"/>
<path d="M0 0 C1.04285156 0.06445312 2.08570313 0.12890625 3.16015625 0.1953125 C5.9375 0.875 5.9375 0.875 8.9375 4.875 C2.9975 3.885 2.9975 3.885 -3.0625 2.875 C0.4025 4.36 0.4025 4.36 3.9375 5.875 C3.9375 6.205 3.9375 6.535 3.9375 6.875 C0.08104879 7.09536864 -2.55473216 6.47855101 -6.0625 4.875 C-6.3925 5.865 -6.7225 6.855 -7.0625 7.875 C-7.7225 7.875 -8.3825 7.875 -9.0625 7.875 C-9.3925 9.195 -9.7225 10.515 -10.0625 11.875 C-11.30217448 8.29371818 -11.08949061 5.50896678 -10.0625 1.875 C-6.76414029 -0.46776017 -3.93778275 -0.30253102 0 0 Z " fill="#6CA442" transform="translate(306.0625,45.125)"/>
<path d="M0 0 C0.99 0.33 1.98 0.66 3 1 C2.87431641 2.35931641 2.87431641 2.35931641 2.74609375 3.74609375 C2.16445388 10.70368463 1.92878268 17.09659946 3 24 C-2.05308503 18.02817224 -2.2281286 12.14615055 -2.265625 4.609375 C-2 2 -2 2 0 0 Z " fill="#A7CD4C" transform="translate(277,63)"/>
<path d="M0 0 C1.64574566 -0.02688151 3.29161413 -0.04634123 4.9375 -0.0625 C5.85402344 -0.07410156 6.77054687 -0.08570312 7.71484375 -0.09765625 C10 0 10 0 11 1 C11 2.65 11 4.3 11 6 C7.04 6 3.08 6 -1 6 C-0.67 4.02 -0.34 2.04 0 0 Z " fill="#BB8C57" transform="translate(292,90)"/>
<path d="M0 0 C0.33 0.66 0.66 1.32 1 2 C0.37351562 2.04898437 -0.25296875 2.09796875 -0.8984375 2.1484375 C-2.12433594 2.26058594 -2.12433594 2.26058594 -3.375 2.375 C-4.18710937 2.44460937 -4.99921875 2.51421875 -5.8359375 2.5859375 C-8.20334191 2.82892588 -8.20334191 2.82892588 -10 5 C-12.68839385 5.26991906 -15.29141936 5.08737357 -18 5 C-17 2 -17 2 -14 0 C-9.07836911 -1.04111423 -4.92082255 -1.08258096 0 0 Z " fill="#8EBA48" transform="translate(271,27)"/>
<path d="M0 0 C2.875 -0.1875 2.875 -0.1875 6 0 C6.66 0.99 7.32 1.98 8 3 C7.34 3 6.68 3 6 3 C6.45375 3.33 6.9075 3.66 7.375 4 C9.84319974 7.0377843 10.18843144 10.19187061 11 14 C9.70391053 13.06862408 8.41328368 12.1296434 7.125 11.1875 C6.40570313 10.66542969 5.68640625 10.14335938 4.9453125 9.60546875 C3 8 3 8 1 5 C1 4.01 1 3.02 1 2 C0.67 1.34 0.34 0.68 0 0 Z " fill="#639F45" transform="translate(280,27)"/>
<path d="M0 0 C3.25 0.125 3.25 0.125 7 1 C9.09597817 3.59239405 10.51879869 6.03759737 12 9 C5.375 8.25 5.375 8.25 2 6 C0.8125 2.875 0.8125 2.875 0 0 Z " fill="#7EA646" transform="translate(324,40)"/>
<path d="M0 0 C0.66 0 1.32 0 2 0 C2 0.99 2 1.98 2 3 C3.32 3.33 4.64 3.66 6 4 C4.71372289 5.17260611 3.42080217 6.3379283 2.125 7.5 C1.40570313 8.1496875 0.68640625 8.799375 -0.0546875 9.46875 C-2 11 -2 11 -4 11 C-3.52269162 9.5410574 -3.04308958 8.08286504 -2.5625 6.625 C-2.29566406 5.81289063 -2.02882813 5.00078125 -1.75390625 4.1640625 C-1 2 -1 2 0 0 Z " fill="#3E6932" transform="translate(301,36)"/>
<path d="M0 0 C2 2 2 2 2.046875 4.49609375 C1.89992188 5.95208984 1.89992188 5.95208984 1.75 7.4375 C1.66234375 8.40558594 1.5746875 9.37367187 1.484375 10.37109375 C1 13 1 13 -1 16 C-2.22485812 13.55028376 -2.16722808 11.85765539 -2.1875 9.125 C-2.20167969 8.26132813 -2.21585937 7.39765625 -2.23046875 6.5078125 C-1.98859252 3.8758712 -1.32983541 2.26019456 0 0 Z " fill="#71A746" transform="translate(264,69)"/>
<path d="M0 0 C0.33 0.99 0.66 1.98 1 3 C3.64 2.67 6.28 2.34 9 2 C7.35 4.31 5.7 6.62 4 9 C1.6568787 8.74438677 -0.67843403 8.40729228 -3 8 C-3.33 7.34 -3.66 6.68 -4 6 C-3.01 5.34 -2.02 4.68 -1 4 C-0.27617533 1.94074861 -0.27617533 1.94074861 0 0 Z " fill="#99BD45" transform="translate(309,21)"/>
<path d="M0 0 C0 0.66 0 1.32 0 2 C-0.845625 2.226875 -1.69125 2.45375 -2.5625 2.6875 C-6.67404851 4.25736398 -9.50393484 6.34299048 -13 9 C-13.66 8.67 -14.32 8.34 -15 8 C-13.66666667 6.66666667 -12.33333333 5.33333333 -11 4 C-10.401875 3.2575 -9.80375 2.515 -9.1875 1.75 C-6.1265115 -0.6987908 -3.80447605 -0.292652 0 0 Z " fill="#52873D" transform="translate(317,35)"/>
<path d="M0 0 C2.8125 2.5625 2.8125 2.5625 5 5 C3 6 3 6 0.3984375 5.22265625 C-1.09816406 4.64837891 -1.09816406 4.64837891 -2.625 4.0625 C-3.62789063 3.68222656 -4.63078125 3.30195312 -5.6640625 2.91015625 C-6.43492187 2.60980469 -7.20578125 2.30945312 -8 2 C-8 1.34 -8 0.68 -8 0 C-4.57930706 -1.14023098 -3.38312738 -1.12770913 0 0 Z " fill="#538E3F" transform="translate(283,34)"/>
<path d="M0 0 C-0.11409593 1.45922693 -0.24165544 2.91740598 -0.375 4.375 C-0.44460938 5.18710937 -0.51421875 5.99921875 -0.5859375 6.8359375 C-1 9 -1 9 -3 11 C-4.60355101 7.49223216 -5.22036864 4.85645121 -5 1 C-1.125 0 -1.125 0 0 0 Z " fill="#3D6832" transform="translate(299,32)"/>
<path d="M0 0 C-2.23775234 3.3566285 -2.93320048 3.57996014 -6.625 4.6875 C-7.44226563 4.93886719 -8.25953125 5.19023438 -9.1015625 5.44921875 C-9.72804688 5.63097656 -10.35453125 5.81273437 -11 6 C-10.06677104 2.77611813 -9.58700229 1.33984343 -6.625 -0.375 C-3.91676239 -1.01981848 -2.57614778 -0.95412881 0 0 Z " fill="#7BA840" transform="translate(285,47)"/>
<path d="M0 0 C6.16456078 0.38528505 9.98627748 2.47086025 15 6 C14.01 6.66 13.02 7.32 12 8 C11.13375 7.38125 10.2675 6.7625 9.375 6.125 C6.24371814 4.15345216 3.53615531 3.01033009 0 2 C0 1.34 0 0.68 0 0 Z " fill="#A5CC4C" transform="translate(325,38)"/>
<path d="M0 0 C2.875 0.9375 2.875 0.9375 6 3 C7.12755372 5.94416805 7.62039672 8.87809026 8 12 C7.01 12 6.02 12 5 12 C3.28232318 8.01811282 1.58962659 4.03520597 0 0 Z " fill="#4F863D" transform="translate(288,21)"/>
<path d="M0 0 C0.66 0.33 1.32 0.66 2 1 C1.20890398 2.27118864 0.41709922 3.54193623 -0.375 4.8125 C-0.81585938 5.52019531 -1.25671875 6.22789063 -1.7109375 6.95703125 C-2.78188476 8.65432039 -3.88676239 10.33014358 -5 12 C-5.97533063 9.36660729 -6.019574 8.07651653 -5.3125 5.3125 C-4 3 -4 3 -1.875 2.1875 C-1.25625 2.125625 -0.6375 2.06375 0 2 C0 1.34 0 0.68 0 0 Z " fill="#4E863D" transform="translate(304,21)"/>
<path d="M0 0 C0.33 0.99 0.66 1.98 1 3 C-1.85021875 5.32240046 -4.46355091 6.93906527 -8 8 C-10.3125 7.625 -10.3125 7.625 -12 7 C-11.34 6.525625 -10.68 6.05125 -10 5.5625 C-9.34 5.046875 -8.68 4.53125 -8 4 C-8 3.67 -8 3.34 -8 3 C-6.865625 2.87625 -5.73125 2.7525 -4.5625 2.625 C-3.386875 2.41875 -2.21125 2.2125 -1 2 C-0.67 1.34 -0.34 0.68 0 0 Z " fill="#5F9941" transform="translate(296,44)"/>
<path d="M0 0 C1.23556641 0.01740234 1.23556641 0.01740234 2.49609375 0.03515625 C3.32238281 0.04417969 4.14867187 0.05320313 5 0.0625 C5.63808594 0.07410156 6.27617187 0.08570313 6.93359375 0.09765625 C8.05859375 3.84765625 8.05859375 3.84765625 6.93359375 6.09765625 C6.27359375 5.76765625 5.61359375 5.43765625 4.93359375 5.09765625 C5.26359375 4.10765625 5.59359375 3.11765625 5.93359375 2.09765625 C3.62359375 2.75765625 1.31359375 3.41765625 -1.06640625 4.09765625 C-1.06640625 3.43765625 -1.06640625 2.77765625 -1.06640625 2.09765625 C-1.72640625 1.76765625 -2.38640625 1.43765625 -3.06640625 1.09765625 C-2.06640625 0.09765625 -2.06640625 0.09765625 0 0 Z " fill="#9FC54F" transform="translate(263.06640625,37.90234375)"/>
<path d="M0 0 C3.33773709 3.64116773 3.97864902 7.28607242 5 12 C3.02 10.68 1.04 9.36 -1 8 C-0.67 5.36 -0.34 2.72 0 0 Z " fill="#8FA955" transform="translate(338,58)"/>
<path d="M0 0 C0.33 0.66 0.66 1.32 1 2 C-2.96 2 -6.92 2 -11 2 C-8.76221009 -2.47557983 -4.12017842 -0.8392956 0 0 Z " fill="#A8CE4C" transform="translate(271,27)"/>
<path d="M0 0 C3.09902323 3.09902323 2.9898579 5.39147385 3.0625 9.75 C3.041875 10.8225 3.02125 11.895 3 13 C0.95204577 11.0373772 0.05023362 9.5722693 -0.19921875 6.73046875 C-0.18858877 4.48045617 -0.12958525 2.24614438 0 0 Z " fill="#5FA144" transform="translate(326,68)"/>
<path d="M0 0 C0.99 0 1.98 0 3 0 C3 1.98 3 3.96 3 6 C2.34 6 1.68 6 1 6 C0.67 7.32 0.34 8.64 0 10 C-1.2380014 6.42355152 -0.74926071 3.66305234 0 0 Z " fill="#B18851" transform="translate(296,47)"/>
<path d="M0 0 C0.99 0.33 1.98 0.66 3 1 C3.625 3.375 3.625 3.375 4 6 C3.34 6.66 2.68 7.32 2 8 C0.35 6.35 -1.3 4.7 -3 3 C-2.01 3 -1.02 3 0 3 C0 2.01 0 1.02 0 0 Z " fill="#406E34" transform="translate(290,36)"/>
<path d="M0 0 C2.875 0.1875 2.875 0.1875 6 1 C7.375 3.5625 7.375 3.5625 8 6 C5.69 5.34 3.38 4.68 1 4 C0.67 2.68 0.34 1.36 0 0 Z " fill="#89B547" transform="translate(314,47)"/>
<path d="M0 0 C0.7425 0.0825 1.485 0.165 2.25 0.25 C0.74793919 3.25412163 -1.78469065 3.79641699 -4.75 5.25 C-6.10863401 6.21534522 -7.45343137 7.20277149 -8.75 8.25 C-6.92599593 3.9939905 -4.88604345 0.44418577 0 0 Z " fill="#B9D65A" transform="translate(321.75,10.75)"/>
<path d="M0 0 C2.875 -0.1875 2.875 -0.1875 6 0 C6.66 0.99 7.32 1.98 8 3 C5.69 3.66 3.38 4.32 1 5 C1 4.01 1 3.02 1 2 C0.67 1.34 0.34 0.68 0 0 Z " fill="#6DA744" transform="translate(280,27)"/>
<path d="M0 0 C0 0.66 0 1.32 0 2 C-0.99 2.495 -0.99 2.495 -2 3 C-2.33 3.66 -2.66 4.32 -3 5 C-4.32 3.35 -5.64 1.7 -7 0 C-2.25 -1.125 -2.25 -1.125 0 0 Z " fill="#6A9C42" transform="translate(323,54)"/>
<path d="M0 0 C0.66 1.32 1.32 2.64 2 4 C3.65 4 5.3 4 7 4 C5.25 5.5625 5.25 5.5625 3 7 C0.75 6.6875 0.75 6.6875 -1 6 C-0.67 4.02 -0.34 2.04 0 0 Z " fill="#85B246" transform="translate(304,24)"/>
<path d="M0 0 C0.33 0.66 0.66 1.32 1 2 C0.06553465 4.03144641 -0.93224776 6.03533587 -2 8 C-2.99 7.67 -3.98 7.34 -5 7 C-3.70700306 4.11562221 -2.34058637 2.12780579 0 0 Z " fill="#79A947" transform="translate(270,60)"/>
<path d="M0 0 C3.95820859 0.56545837 6.6659053 1.80902348 10 4 C9.01 4.495 9.01 4.495 8 5 C1.25806452 2.51612903 1.25806452 2.51612903 0 0 Z " fill="#5C9E43" transform="translate(279,37)"/>
<path d="M0 0 C0.99 1.32 1.98 2.64 3 4 C2.67 4.66 2.34 5.32 2 6 C0.02 5.01 -1.96 4.02 -4 3 C-2.68 2.01 -1.36 1.02 0 0 Z " fill="#85A053" transform="translate(341,47)"/>
<path d="M0 0 C1.11375 0.3403125 1.11375 0.3403125 2.25 0.6875 C2.25 1.3475 2.25 2.0075 2.25 2.6875 C-0.72 2.6875 -3.69 2.6875 -6.75 2.6875 C-4.29511132 0.41445492 -3.41240272 -0.38777304 0 0 Z " fill="#609F43" transform="translate(307.75,42.3125)"/>
</svg>
